<svg id="eZDxd7vMeCX1" xmlns="http://www.w3.org/2000/svg" xmlns:xlink="http://www.w3.org/1999/xlink" viewBox="0 0 300 300" shape-rendering="geometricPrecision" text-rendering="geometricPrecision"><defs><linearGradient id="eZDxd7vMeCX2-fill" x1="0.946202" y1="1" x2="0.174077" y2="0" spreadMethod="pad" gradientUnits="objectBoundingBox"><stop id="eZDxd7vMeCX2-fill-0" offset="0%" stop-color="rgb(9,59,142)"/><stop id="eZDxd7vMeCX2-fill-1" offset="100%" stop-color="rgb(113,246,184)"/></linearGradient></defs><path id="eZDxd7vMeCX2" d="M-103.988209,-0.656077C-105.300364,-80.697475,-83.649821,-104.768424,0,-104.378317C83.649821,-103.98821,104.644287,-85.290014,104.378317,0C104.112347,85.290014,87.586284,103.332132,0,104.378317C-87.586284,105.424502,-102.676055,84.633937,-103.988209,-0.656077Z" transform="matrix(1.180665 0 0 1.180665 150 149.982705)" fill="url(#eZDxd7vMeCX2-fill)" stroke="none" stroke-width="0"/><path id="eZDxd7vMeCX3" d="M60.000002,123.665974C60.000002,123.665974,60.000002,123.665974,118.288494,84.809198C176.563183,123.665974,176.563183,123.665974,176.563183,123.665974C176.563183,123.665974,176.563183,191.665333,176.563183,191.665333C176.563183,191.665333,133.82282,191.665333,133.82282,191.665333C133.82282,191.665333,133.82282,166.308556,133.82282,152.808557C121.82282,152.808557,114.754168,152.808557,102.754168,152.808557C102.754168,166.308556,102.754168,191.665333,102.754168,191.665333Q60.000002,191.665333,60.000002,191.665333C60.000002,191.665333,60.000002,123.665974,60.000002,123.665974Z" transform="matrix(1.029977 0 0 1.029421 28.165572 2.695657)" fill="rgb(255,255,255)" stroke="none" stroke-width="0"/></svg>